<svg xmlns="http://www.w3.org/2000/svg" viewBox="0 0 100 100" width="100" height="100">
  <defs>
    <linearGradient id="gM" x1="0" y1="0" x2="1" y2="1">
      <stop offset="0%" stop-color="#F4D5B1"/>
      <stop offset="100%" stop-color="#e6bc8b"/>
    </linearGradient>
  </defs>
  <g transform="translate(46, 50)">
    <polygon points="0,-40 35,-20 35,20 0,40 -35,20 -35,-20" fill="none" stroke="#c9a06c" stroke-width="1"/>
    <polygon points="0,-33 29,-16.5 29,16.5 0,33 -29,16.5 -29,-16.5" fill="url(#gM)"/>
    <line x1="30" y1="-15" x2="44" y2="-24" stroke="#f4d9bb" stroke-width="2" stroke-linecap="round"/>
    <line x1="30" y1="0" x2="48" y2="0" stroke="#f4d9bb" stroke-width="2.5" stroke-linecap="round"/>
    <line x1="30" y1="15" x2="44" y2="24" stroke="#f4d9bb" stroke-width="2" stroke-linecap="round"/>
    <circle cx="46" cy="-26" r="2.5" fill="#ffedce"/>
    <circle cx="51" cy="0" r="3" fill="#ffedce"/>
    <circle cx="46" cy="26" r="2.5" fill="#ffedce"/>
    <line x1="0" y1="-13" x2="0" y2="13" stroke="#4a2e10" stroke-width="3.5" stroke-linecap="round"/>
    <line x1="-11" y1="-6.5" x2="11" y2="6.5" stroke="#4a2e10" stroke-width="3.5" stroke-linecap="round"/>
    <line x1="-11" y1="6.5" x2="11" y2="-6.5" stroke="#4a2e10" stroke-width="3.5" stroke-linecap="round"/>
  </g>
</svg>
