<svg xmlns="http://www.w3.org/2000/svg" viewBox="0 0 560 200" width="560" height="200">
  <defs>
    <style>
      @import url('https://fonts.googleapis.com/css2?family=JetBrains+Mono:wght@400;700&amp;display=swap');
      .wm { font-family: 'JetBrains Mono', 'SF Mono', 'Fira Code', 'Courier New', monospace; letter-spacing: 4px; }
    </style>
  </defs>
  <g transform="translate(90, 100)">
    <polygon points="0,-72 62,-36 62,36 0,72 -62,36 -62,-36" fill="none" stroke="#FFFFFF" stroke-width="1.8" opacity="0.15"/>
    <polygon points="0,-62 54,-31 54,31 0,62 -54,31 -54,-31" fill="none" stroke="#FFFFFF" stroke-width="0.8" opacity="0.08"/>
    <polygon points="0,-52 45,-26 45,26 0,52 -45,26 -45,-26" fill="#FFFFFF" opacity="0.95"/>
    <line x1="46" y1="-25" x2="74" y2="-42" stroke="#FFFFFF" stroke-width="2" opacity="0.35" stroke-linecap="round"/>
    <line x1="46" y1="0" x2="82" y2="0" stroke="#FFFFFF" stroke-width="2.5" opacity="0.45" stroke-linecap="round"/>
    <line x1="46" y1="25" x2="74" y2="42" stroke="#FFFFFF" stroke-width="2" opacity="0.35" stroke-linecap="round"/>
    <circle cx="77" cy="-44" r="2.5" fill="#FFFFFF" opacity="0.25"/>
    <circle cx="85" cy="0" r="3" fill="#FFFFFF" opacity="0.3"/>
    <circle cx="77" cy="44" r="2.5" fill="#FFFFFF" opacity="0.25"/>
    <line x1="0" y1="-22" x2="0" y2="22" stroke="#3D2E1A" stroke-width="5" stroke-linecap="round"/>
    <line x1="-19" y1="-11" x2="19" y2="11" stroke="#3D2E1A" stroke-width="5" stroke-linecap="round"/>
    <line x1="-19" y1="11" x2="19" y2="-11" stroke="#3D2E1A" stroke-width="5" stroke-linecap="round"/>
    <circle cx="0" cy="0" r="3.5" fill="#3D2E1A" opacity="0.35"/>
  </g>
  <text class="wm" x="200" y="82" font-size="48" font-weight="700" fill="#FFFFFF">ASTER</text>
  <text class="wm" x="200" y="134" font-size="48" font-weight="400" fill="#FFFFFF" opacity="0.6">SCAN</text>
</svg>
